# xmcd
#
# Track frame offsets:
#	150
#	14359
#	26365
#	45048
#	64205
#	79335
#	95617
#	107776
#	125127
#	134360
#	156332
#	174944
#
# Disc length: 2578 seconds
#
# Revision: 2
# Processed by: cddbd v1.5.2PL0 Copyright (c) Steve Scherf et al.
# Submitted via: audiograbber 1.83.01
#
DISCID=980a100c
DTITLE=The Bluesband - Ready
DYEAR=1980
DGENRE=Blues
TTITLE0=Twenty Nine Ways
TTITLE1=Find Yourself Another Fool
TTITLE2=Nooh Lewis Blues
TTITLE3=Hallelujah, I Love Her So
TTITLE4=Maggie's Farm
TTITLE5=Lonely Avenue
TTITLE6=I'm Ready
TTITLE7=Green Stuff
TTITLE8=Hey, Hey Little Girl
TTITLE9=Can't Hold On
TTITLE10=SUS Blues
TTITLE11=The Cat
EXTD=
EXTT0=
EXTT1=
EXTT2=
EXTT3=
EXTT4=
EXTT5=
EXTT6=
EXTT7=
EXTT8=
EXTT9=
EXTT10=
EXTT11=
PLAYORDER=
